<svg xmlns:svgjs="http://svgjs.com/svgjs" xmlns="http://www.w3.org/2000/svg" xmlns:xlink="http://www.w3.org/1999/xlink" version="1.1" x="0px" y="0px" viewBox="0 0 100 125" style="enable-background:new 0 0 100 100;" xml:space="preserve"><path d="M97.1,91.4l-24-24c14.1-17.2,11.5-42.5-5.7-56.6S24.9-0.6,10.9,16.6s-11.5,42.5,5.7,56.6c14.8,12.1,36.1,12.1,50.9,0l24,24  c1.6,1.5,4.1,1.5,5.7-0.1C98.6,95.4,98.6,93,97.1,91.4z M42.1,74.2c-17.7,0-32.1-14.4-32.1-32.1S24.3,10,42.1,10  s32.1,14.4,32.1,32.1C74.1,59.8,59.8,74.1,42.1,74.2z"/></svg>