<svg xmlns="http://www.w3.org/2000/svg" xmlns:xlink="http://www.w3.org/1999/xlink" version="1.1" x="0px" y="0px" viewBox="0 0 64 80" style="enable-background:new 0 0 64 64;" xml:space="preserve"><path d="M32,5c0.96,0,1.87,0.37,2.55,1.03c0.68,0.68,1.05,1.56,1.05,2.49v1.04c-2.33-0.45-4.88-0.45-7.2,0V8.53  C28.4,6.58,30.02,5,32,5z M32,59c-2.81,0-5.21-1.72-6.1-4.22h12.2C37.21,57.28,34.81,59,32,59z M54,51.78c0,0.55-0.45,1-1,1H11  c-0.55,0-1-0.45-1-1v-2.34c0-0.28,0.13-0.53,0.34-0.7l4.29-3.31c0.7-0.54,1.12-1.39,1.12-2.28V28.32c0-4.66,1.61-8.96,4.54-12.12  c2.01-2.15,4.55-3.67,7.38-4.41c1.36-0.37,2.81-0.56,4.33-0.56s2.98,0.19,4.35,0.57c2.81,0.74,5.36,2.26,7.36,4.41  c2.93,3.17,4.54,7.47,4.54,12.13v14.82c0,0.89,0.42,1.74,1.12,2.28l4.29,3.31c0.22,0.17,0.34,0.42,0.34,0.7V51.78z"/></svg>